o Cylinder
v 0 1 0
v 0 1 0
v 0 1 0
v 0 1 0
v 0 1 0
v 0 1 0
v 0 1 0
v 0 1 0
v 0 1 0
v 0 1 0
v 0 1 0
v 0 1 0
v 0 1 0
v 0 1 0
v 0 1 0
v 0 1 0
v 0 1 0
v 0 1 0
v 0 1 0
v 0 1 0
v 0 1 0
v 0 -1 1
v 0.30901700258255005 -1 0.9510565400123596
v 0.5877852439880371 -1 0.80901700258255
v 0.80901700258255 -1 0.5877852439880371
v 0.9510565400123596 -1 0.30901700258255005
v 1 -1 6.123234262925839e-17
v 0.9510565400123596 -1 -0.30901700258255005
v 0.80901700258255 -1 -0.5877852439880371
v 0.5877852439880371 -1 -0.80901700258255
v 0.30901700258255005 -1 -0.9510565400123596
v 1.2246468525851679e-16 -1 -1
v -0.30901700258255005 -1 -0.9510565400123596
v -0.5877852439880371 -1 -0.80901700258255
v -0.80901700258255 -1 -0.5877852439880371
v -0.9510565400123596 -1 -0.30901700258255005
v -1 -1 -1.8369701465288538e-16
v -0.9510565400123596 -1 0.30901700258255005
v -0.80901700258255 -1 0.5877852439880371
v -0.5877852439880371 -1 0.80901700258255
v -0.30901700258255005 -1 0.9510565400123596
v -2.4492937051703357e-16 -1 1
v 0 -1 0
v 0 -1 0
v 0 -1 0
v 0 -1 0
v 0 -1 0
v 0 -1 0
v 0 -1 0
v 0 -1 0
v 0 -1 0
v 0 -1 0
v 0 -1 0
v 0 -1 0
v 0 -1 0
v 0 -1 0
v 0 -1 0
v 0 -1 0
v 0 -1 0
v 0 -1 0
v 0 -1 0
v 0 -1 0
v 0 -1 1
v 0.30901700258255005 -1 0.9510565400123596
v 0.5877852439880371 -1 0.80901700258255
v 0.80901700258255 -1 0.5877852439880371
v 0.9510565400123596 -1 0.30901700258255005
v 1 -1 6.123234262925839e-17
v 0.9510565400123596 -1 -0.30901700258255005
v 0.80901700258255 -1 -0.5877852439880371
v 0.5877852439880371 -1 -0.80901700258255
v 0.30901700258255005 -1 -0.9510565400123596
v 1.2246468525851679e-16 -1 -1
v -0.30901700258255005 -1 -0.9510565400123596
v -0.5877852439880371 -1 -0.80901700258255
v -0.80901700258255 -1 -0.5877852439880371
v -0.9510565400123596 -1 -0.30901700258255005
v -1 -1 -1.8369701465288538e-16
v -0.9510565400123596 -1 0.30901700258255005
v -0.80901700258255 -1 0.5877852439880371
v -0.5877852439880371 -1 0.80901700258255
v -0.30901700258255005 -1 0.9510565400123596
v -2.4492937051703357e-16 -1 1
vt 0 1
vt 0.05000000074505806 1
vt 0.10000000149011612 1
vt 0.15000000596046448 1
vt 0.20000000298023224 1
vt 0.25 1
vt 0.30000001192092896 1
vt 0.3499999940395355 1
vt 0.4000000059604645 1
vt 0.44999998807907104 1
vt 0.5 1
vt 0.550000011920929 1
vt 0.6000000238418579 1
vt 0.6499999761581421 1
vt 0.699999988079071 1
vt 0.75 1
vt 0.800000011920929 1
vt 0.8500000238418579 1
vt 0.8999999761581421 1
vt 0.949999988079071 1
vt 1 1
vt 0 0
vt 0.05000000074505806 0
vt 0.10000000149011612 0
vt 0.15000000596046448 0
vt 0.20000000298023224 0
vt 0.25 0
vt 0.30000001192092896 0
vt 0.3499999940395355 0
vt 0.4000000059604645 0
vt 0.44999998807907104 0
vt 0.5 0
vt 0.550000011920929 0
vt 0.6000000238418579 0
vt 0.6499999761581421 0
vt 0.699999988079071 0
vt 0.75 0
vt 0.800000011920929 0
vt 0.8500000238418579 0
vt 0.8999999761581421 0
vt 0.949999988079071 0
vt 1 0
vt 0.5 0.5
vt 0.5 0.5
vt 0.5 0.5
vt 0.5 0.5
vt 0.5 0.5
vt 0.5 0.5
vt 0.5 0.5
vt 0.5 0.5
vt 0.5 0.5
vt 0.5 0.5
vt 0.5 0.5
vt 0.5 0.5
vt 0.5 0.5
vt 0.5 0.5
vt 0.5 0.5
vt 0.5 0.5
vt 0.5 0.5
vt 0.5 0.5
vt 0.5 0.5
vt 0.5 0.5
vt 1 0.5
vt 0.9755282402038574 0.345491498708725
vt 0.9045084714889526 0.20610737800598145
vt 0.7938926219940186 0.09549150615930557
vt 0.6545084714889526 0.024471741169691086
vt 0.5 0
vt 0.345491498708725 0.024471741169691086
vt 0.20610737800598145 0.09549150615930557
vt 0.09549150615930557 0.20610737800598145
vt 0.024471741169691086 0.345491498708725
vt 0 0.5
vt 0.024471741169691086 0.6545084714889526
vt 0.09549150615930557 0.7938926219940186
vt 0.20610737800598145 0.9045084714889526
vt 0.345491498708725 0.9755282402038574
vt 0.5 1
vt 0.6545084714889526 0.9755282402038574
vt 0.7938926219940186 0.9045084714889526
vt 0.9045084714889526 0.7938926219940186
vt 0.9755282402038574 0.6545084714889526
vt 1 0.5
vn 0 0.4472135901451111 0.8944271802902222
vn 0.27639320492744446 0.4472135901451111 0.8506507873535156
vn 0.525731086730957 0.4472135901451111 0.7236068248748779
vn 0.7236068248748779 0.4472135901451111 0.525731086730957
vn 0.8506507873535156 0.4472135901451111 0.27639320492744446
vn 0.8944271802902222 0.4472135901451111 5.476786989387483e-17
vn 0.8506507873535156 0.4472135901451111 -0.27639320492744446
vn 0.7236068248748779 0.4472135901451111 -0.525731086730957
vn 0.525731086730957 0.4472135901451111 -0.7236068248748779
vn 0.27639320492744446 0.4472135901451111 -0.8506507873535156
vn 1.0953573978774966e-16 0.4472135901451111 -0.8944271802902222
vn -0.27639320492744446 0.4472135901451111 -0.8506507873535156
vn -0.525731086730957 0.4472135901451111 -0.7236068248748779
vn -0.7236068248748779 0.4472135901451111 -0.525731086730957
vn -0.8506507873535156 0.4472135901451111 -0.27639320492744446
vn -0.8944271802902222 0.4472135901451111 -1.6430361299034693e-16
vn -0.8506507873535156 0.4472135901451111 0.27639320492744446
vn -0.7236068248748779 0.4472135901451111 0.525731086730957
vn -0.525731086730957 0.4472135901451111 0.7236068248748779
vn -0.27639320492744446 0.4472135901451111 0.8506507873535156
vn -2.190714795754993e-16 0.4472135901451111 0.8944271802902222
vn 0 0.4472135901451111 0.8944271802902222
vn 0.27639320492744446 0.4472135901451111 0.8506507873535156
vn 0.525731086730957 0.4472135901451111 0.7236068248748779
vn 0.7236068248748779 0.4472135901451111 0.525731086730957
vn 0.8506507873535156 0.4472135901451111 0.27639320492744446
vn 0.8944271802902222 0.4472135901451111 5.476786989387483e-17
vn 0.8506507873535156 0.4472135901451111 -0.27639320492744446
vn 0.7236068248748779 0.4472135901451111 -0.525731086730957
vn 0.525731086730957 0.4472135901451111 -0.7236068248748779
vn 0.27639320492744446 0.4472135901451111 -0.8506507873535156
vn 1.0953573978774966e-16 0.4472135901451111 -0.8944271802902222
vn -0.27639320492744446 0.4472135901451111 -0.8506507873535156
vn -0.525731086730957 0.4472135901451111 -0.7236068248748779
vn -0.7236068248748779 0.4472135901451111 -0.525731086730957
vn -0.8506507873535156 0.4472135901451111 -0.27639320492744446
vn -0.8944271802902222 0.4472135901451111 -1.6430361299034693e-16
vn -0.8506507873535156 0.4472135901451111 0.27639320492744446
vn -0.7236068248748779 0.4472135901451111 0.525731086730957
vn -0.525731086730957 0.4472135901451111 0.7236068248748779
vn -0.27639320492744446 0.4472135901451111 0.8506507873535156
vn -2.190714795754993e-16 0.4472135901451111 0.8944271802902222
vn 0 -1 0
vn 0 -1 0
vn 0 -1 0
vn 0 -1 0
vn 0 -1 0
vn 0 -1 0
vn 0 -1 0
vn 0 -1 0
vn 0 -1 0
vn 0 -1 0
vn 0 -1 0
vn 0 -1 0
vn 0 -1 0
vn 0 -1 0
vn 0 -1 0
vn 0 -1 0
vn 0 -1 0
vn 0 -1 0
vn 0 -1 0
vn 0 -1 0
vn 0 -1 0
vn 0 -1 0
vn 0 -1 0
vn 0 -1 0
vn 0 -1 0
vn 0 -1 0
vn 0 -1 0
vn 0 -1 0
vn 0 -1 0
vn 0 -1 0
vn 0 -1 0
vn 0 -1 0
vn 0 -1 0
vn 0 -1 0
vn 0 -1 0
vn 0 -1 0
vn 0 -1 0
vn 0 -1 0
vn 0 -1 0
vn 0 -1 0
vn 0 -1 0
f 1/1/1 22/22/22 2/2/2
f 22/22/22 23/23/23 2/2/2
f 2/2/2 23/23/23 3/3/3
f 23/23/23 24/24/24 3/3/3
f 3/3/3 24/24/24 4/4/4
f 24/24/24 25/25/25 4/4/4
f 4/4/4 25/25/25 5/5/5
f 25/25/25 26/26/26 5/5/5
f 5/5/5 26/26/26 6/6/6
f 26/26/26 27/27/27 6/6/6
f 6/6/6 27/27/27 7/7/7
f 27/27/27 28/28/28 7/7/7
f 7/7/7 28/28/28 8/8/8
f 28/28/28 29/29/29 8/8/8
f 8/8/8 29/29/29 9/9/9
f 29/29/29 30/30/30 9/9/9
f 9/9/9 30/30/30 10/10/10
f 30/30/30 31/31/31 10/10/10
f 10/10/10 31/31/31 11/11/11
f 31/31/31 32/32/32 11/11/11
f 11/11/11 32/32/32 12/12/12
f 32/32/32 33/33/33 12/12/12
f 12/12/12 33/33/33 13/13/13
f 33/33/33 34/34/34 13/13/13
f 13/13/13 34/34/34 14/14/14
f 34/34/34 35/35/35 14/14/14
f 14/14/14 35/35/35 15/15/15
f 35/35/35 36/36/36 15/15/15
f 15/15/15 36/36/36 16/16/16
f 36/36/36 37/37/37 16/16/16
f 16/16/16 37/37/37 17/17/17
f 37/37/37 38/38/38 17/17/17
f 17/17/17 38/38/38 18/18/18
f 38/38/38 39/39/39 18/18/18
f 18/18/18 39/39/39 19/19/19
f 39/39/39 40/40/40 19/19/19
f 19/19/19 40/40/40 20/20/20
f 40/40/40 41/41/41 20/20/20
f 20/20/20 41/41/41 21/21/21
f 41/41/41 42/42/42 21/21/21
f 64/64/64 63/63/63 43/43/43
f 65/65/65 64/64/64 44/44/44
f 66/66/66 65/65/65 45/45/45
f 67/67/67 66/66/66 46/46/46
f 68/68/68 67/67/67 47/47/47
f 69/69/69 68/68/68 48/48/48
f 70/70/70 69/69/69 49/49/49
f 71/71/71 70/70/70 50/50/50
f 72/72/72 71/71/71 51/51/51
f 73/73/73 72/72/72 52/52/52
f 74/74/74 73/73/73 53/53/53
f 75/75/75 74/74/74 54/54/54
f 76/76/76 75/75/75 55/55/55
f 77/77/77 76/76/76 56/56/56
f 78/78/78 77/77/77 57/57/57
f 79/79/79 78/78/78 58/58/58
f 80/80/80 79/79/79 59/59/59
f 81/81/81 80/80/80 60/60/60
f 82/82/82 81/81/81 61/61/61
f 83/83/83 82/82/82 62/62/62
